<svg width="600" height="254" viewBox="0 0 600 254" fill="none" xmlns="http://www.w3.org/2000/svg">
<path d="M933 206.925C902.808 187.515 808.887 161.953 641.792 168.199C448.951 175.407 447.003 253 300.587 253C194.752 253 133.719 139.932 -1.6591 139.932C-186.85 139.932 -98.3566 265.761 -331.825 240.845" stroke="url(#paint0_linear_129_360)" stroke-opacity="0.5" stroke-width="0.399933"/>
<path d="M932.996 67.9928C902.804 48.5828 860.6 29.2671 750.869 29.2671C575.824 29.267 556.081 114.068 409.665 114.068C303.83 114.068 306.102 1.00004 170.725 1.00003C-14.4659 1.00001 -83.4741 118.873 -331.829 101.913" stroke="url(#paint1_linear_129_360)" stroke-opacity="0.5" stroke-width="0.399933"/>
<path d="M932.996 198.856C902.804 179.446 811.887 154.247 648.124 160.13C456.317 166.919 453.335 244.931 306.919 244.931C201.084 244.931 143.728 131.863 8.35009 131.863C-176.84 131.863 -97.4958 257.23 -331.829 232.776" stroke="url(#paint2_linear_129_360)" stroke-opacity="0.5" stroke-width="0.399933"/>
<path d="M932.996 190.928C902.804 171.518 814.837 146.675 654.345 152.202C463.554 158.58 459.557 237.003 313.141 237.003C207.306 237.003 153.561 123.935 18.1828 123.935C-167.008 123.935 -96.6467 248.848 -331.829 224.848" stroke="url(#paint3_linear_129_360)" stroke-opacity="0.5" stroke-width="0.399933"/>
<path d="M932.992 183.15C902.8 163.74 817.729 139.247 660.449 144.425C470.654 150.399 465.661 229.225 319.245 229.225C213.41 229.225 163.209 116.157 27.8311 116.157C-157.359 116.157 -95.8171 240.625 -331.833 217.071" stroke="url(#paint4_linear_129_360)" stroke-opacity="0.5" stroke-width="0.399933"/>
<path d="M932.996 175.518C902.804 156.108 820.574 131.958 666.447 136.792C477.629 142.37 471.658 221.593 325.242 221.593C219.407 221.593 172.685 108.525 37.3069 108.525C-147.884 108.525 -94.9953 232.555 -331.829 209.438" stroke="url(#paint5_linear_129_360)" stroke-opacity="0.5" stroke-width="0.399933"/>
<path d="M932.996 168.03C902.804 148.62 823.361 124.807 672.326 129.304C484.467 134.494 477.538 214.105 331.122 214.105C225.287 214.105 181.976 101.037 46.5983 101.037C-138.592 101.037 -94.1929 224.639 -331.829 201.95" stroke="url(#paint6_linear_129_360)" stroke-opacity="0.5" stroke-width="0.399933"/>
<path d="M932.996 160.685C902.804 141.275 826.095 117.792 678.091 121.959C491.173 126.768 483.303 206.76 336.887 206.76C231.052 206.76 191.087 93.692 55.7093 93.692C-129.481 93.692 -93.4061 216.873 -331.829 194.605" stroke="url(#paint7_linear_129_360)" stroke-opacity="0.5" stroke-width="0.399933"/>
<path d="M932.996 153.493C902.804 134.083 828.774 110.924 683.742 114.767C497.746 119.203 488.954 199.568 342.538 199.568C236.703 199.568 200.018 86.5 64.6399 86.5C-120.551 86.5 -92.6349 209.269 -331.829 187.413" stroke="url(#paint8_linear_129_360)" stroke-opacity="0.5" stroke-width="0.399933"/>
<path d="M932.996 146.437C902.804 127.027 831.399 104.185 689.279 107.711C504.186 111.781 494.491 192.512 348.075 192.512C242.24 192.512 208.768 79.4442 73.3901 79.4442C-111.8 79.4442 -91.8793 201.809 -331.829 180.357" stroke="url(#paint9_linear_129_360)" stroke-opacity="0.5" stroke-width="0.399933"/>
<path d="M933 139.531C902.808 120.121 833.974 97.5895 694.705 100.805C510.497 104.517 499.917 185.606 353.501 185.606C247.666 185.606 217.342 72.5385 81.9638 72.5384C-103.227 72.5384 -91.1354 194.508 -331.825 173.452" stroke="url(#paint10_linear_129_360)" stroke-opacity="0.5" stroke-width="0.399933"/>
<path d="M932.996 132.768C902.804 113.358 836.487 91.1306 700.01 94.0426C516.668 97.4034 505.222 178.844 358.806 178.844C252.971 178.844 225.727 65.7756 90.3492 65.7756C-94.8413 65.7756 -90.4148 187.358 -331.829 166.689" stroke="url(#paint11_linear_129_360)" stroke-opacity="0.5" stroke-width="0.399933"/>
<path d="M933 126.151C902.808 106.741 838.954 84.8106 705.208 87.4252C522.714 90.4427 510.42 172.226 364.004 172.226C258.169 172.226 233.94 59.1582 98.5621 59.1582C-86.6285 59.1582 -89.7021 180.362 -331.825 160.071" stroke="url(#paint12_linear_129_360)" stroke-opacity="0.5" stroke-width="0.399933"/>
<path d="M933 119.683C902.808 100.273 841.362 78.6336 710.289 80.9574C528.623 83.6392 515.5 165.758 369.084 165.758C263.249 165.758 241.968 52.6904 106.591 52.6904C-78.5999 52.6904 -89.0088 173.524 -331.825 153.603" stroke="url(#paint13_linear_129_360)" stroke-opacity="0.5" stroke-width="0.399933"/>
<path d="M933 113.358C902.808 93.9479 843.717 72.5927 715.255 74.6321C534.399 76.9858 520.466 159.433 374.05 159.433C268.215 159.433 249.817 46.3651 114.439 46.3651C-70.7518 46.3651 -88.331 166.836 -331.825 147.278" stroke="url(#paint14_linear_129_360)" stroke-opacity="0.5" stroke-width="0.399933"/>
<path d="M932.996 107.181C902.804 87.7714 846.013 66.694 720.102 68.4556C540.038 70.4887 525.314 153.257 378.898 153.257C273.063 153.257 257.48 40.1886 122.102 40.1886C-63.0881 40.1886 -87.6728 160.306 -331.829 141.102" stroke="url(#paint15_linear_129_360)" stroke-opacity="0.5" stroke-width="0.399933"/>
<path d="M932.996 101.145C902.804 81.735 848.259 60.9289 724.84 62.4192C545.549 64.1392 530.052 147.22 383.636 147.22C277.801 147.22 264.968 34.1522 129.59 34.1522C-55.6008 34.1522 -87.0263 153.924 -331.829 135.065" stroke="url(#paint16_linear_129_360)" stroke-opacity="0.5" stroke-width="0.399933"/>
<path d="M933 95.2549C902.808 75.8449 850.455 55.3035 729.468 56.5291C550.931 57.9435 534.679 141.33 388.264 141.33C282.429 141.33 272.278 28.262 136.9 28.262C-48.2901 28.262 -86.3914 147.696 -331.825 129.175" stroke="url(#paint17_linear_129_360)" stroke-opacity="0.5" stroke-width="0.399933"/>
<path d="M932.996 89.5119C902.804 70.1019 852.589 49.8187 733.973 50.7861C556.172 51.9026 539.185 135.587 392.769 135.587C286.934 135.587 279.401 22.5191 144.023 22.5191C-41.1675 22.5191 -85.7799 141.625 -331.829 123.432" stroke="url(#paint18_linear_129_360)" stroke-opacity="0.5" stroke-width="0.399933"/>
<path d="M933 83.9144C902.808 64.5044 854.677 44.4729 738.372 45.1886C561.288 46.0147 543.584 129.99 397.168 129.99C291.333 129.99 286.351 16.9216 150.973 16.9216C-34.2176 16.9216 -85.1762 135.707 -331.825 117.835" stroke="url(#paint19_linear_129_360)" stroke-opacity="0.5" stroke-width="0.399933"/>
<path d="M932.996 78.4615C902.804 59.0515 856.703 39.2651 742.649 39.7357C566.264 40.2788 547.861 124.537 401.445 124.537C295.61 124.537 293.113 11.4687 157.735 11.4687C-27.4558 11.4686 -84.5958 129.941 -331.829 112.382" stroke="url(#paint20_linear_129_360)" stroke-opacity="0.5" stroke-width="0.399933"/>
<path d="M932.996 73.1562C902.804 53.7462 858.678 34.1984 746.816 34.4304C571.11 34.6982 552.028 119.231 405.612 119.231C299.777 119.231 299.698 6.16338 164.32 6.16337C-20.8707 6.16336 -84.0272 124.332 -331.829 107.076" stroke="url(#paint21_linear_129_360)" stroke-opacity="0.5" stroke-width="0.399933"/>
<defs>
<linearGradient id="paint0_linear_129_360" x1="300.587" y1="253" x2="300.587" y2="139.932" gradientUnits="userSpaceOnUse">
<stop stop-color="#670DCE"/>
<stop offset="0.29" stop-color="#B67EF6"/>
<stop offset="0.575" stop-color="#670DCE"/>
<stop offset="0.825" stop-color="#B67EF6"/>
<stop offset="1" stop-color="#670DCE"/>
</linearGradient>
<linearGradient id="paint1_linear_129_360" x1="300.583" y1="114.068" x2="300.583" y2="1.00004" gradientUnits="userSpaceOnUse">
<stop stop-color="#670DCE"/>
<stop offset="0.29" stop-color="#B67EF6"/>
<stop offset="0.575" stop-color="#670DCE"/>
<stop offset="0.825" stop-color="#B67EF6"/>
<stop offset="1" stop-color="#670DCE"/>
</linearGradient>
<linearGradient id="paint2_linear_129_360" x1="300.583" y1="244.931" x2="300.583" y2="131.863" gradientUnits="userSpaceOnUse">
<stop stop-color="#670DCE"/>
<stop offset="0.29" stop-color="#B67EF6"/>
<stop offset="0.575" stop-color="#670DCE"/>
<stop offset="0.825" stop-color="#B67EF6"/>
<stop offset="1" stop-color="#670DCE"/>
</linearGradient>
<linearGradient id="paint3_linear_129_360" x1="300.583" y1="237.003" x2="300.583" y2="123.935" gradientUnits="userSpaceOnUse">
<stop stop-color="#670DCE"/>
<stop offset="0.29" stop-color="#B67EF6"/>
<stop offset="0.575" stop-color="#670DCE"/>
<stop offset="0.825" stop-color="#B67EF6"/>
<stop offset="1" stop-color="#670DCE"/>
</linearGradient>
<linearGradient id="paint4_linear_129_360" x1="300.58" y1="229.225" x2="300.58" y2="116.157" gradientUnits="userSpaceOnUse">
<stop stop-color="#670DCE"/>
<stop offset="0.29" stop-color="#B67EF6"/>
<stop offset="0.575" stop-color="#670DCE"/>
<stop offset="0.825" stop-color="#B67EF6"/>
<stop offset="1" stop-color="#670DCE"/>
</linearGradient>
<linearGradient id="paint5_linear_129_360" x1="300.583" y1="221.593" x2="300.583" y2="108.525" gradientUnits="userSpaceOnUse">
<stop stop-color="#670DCE"/>
<stop offset="0.29" stop-color="#B67EF6"/>
<stop offset="0.575" stop-color="#670DCE"/>
<stop offset="0.825" stop-color="#B67EF6"/>
<stop offset="1" stop-color="#670DCE"/>
</linearGradient>
<linearGradient id="paint6_linear_129_360" x1="300.583" y1="214.105" x2="300.583" y2="101.037" gradientUnits="userSpaceOnUse">
<stop stop-color="#670DCE"/>
<stop offset="0.29" stop-color="#B67EF6"/>
<stop offset="0.575" stop-color="#670DCE"/>
<stop offset="0.825" stop-color="#B67EF6"/>
<stop offset="1" stop-color="#670DCE"/>
</linearGradient>
<linearGradient id="paint7_linear_129_360" x1="300.583" y1="206.76" x2="300.583" y2="93.692" gradientUnits="userSpaceOnUse">
<stop stop-color="#670DCE"/>
<stop offset="0.29" stop-color="#B67EF6"/>
<stop offset="0.575" stop-color="#670DCE"/>
<stop offset="0.825" stop-color="#B67EF6"/>
<stop offset="1" stop-color="#670DCE"/>
</linearGradient>
<linearGradient id="paint8_linear_129_360" x1="300.583" y1="199.568" x2="300.583" y2="86.5" gradientUnits="userSpaceOnUse">
<stop stop-color="#670DCE"/>
<stop offset="0.29" stop-color="#B67EF6"/>
<stop offset="0.575" stop-color="#670DCE"/>
<stop offset="0.825" stop-color="#B67EF6"/>
<stop offset="1" stop-color="#670DCE"/>
</linearGradient>
<linearGradient id="paint9_linear_129_360" x1="300.583" y1="192.512" x2="300.583" y2="79.4442" gradientUnits="userSpaceOnUse">
<stop stop-color="#670DCE"/>
<stop offset="0.29" stop-color="#B67EF6"/>
<stop offset="0.575" stop-color="#670DCE"/>
<stop offset="0.825" stop-color="#B67EF6"/>
<stop offset="1" stop-color="#670DCE"/>
</linearGradient>
<linearGradient id="paint10_linear_129_360" x1="300.587" y1="185.606" x2="300.587" y2="72.5385" gradientUnits="userSpaceOnUse">
<stop stop-color="#670DCE"/>
<stop offset="0.29" stop-color="#B67EF6"/>
<stop offset="0.575" stop-color="#670DCE"/>
<stop offset="0.825" stop-color="#B67EF6"/>
<stop offset="1" stop-color="#670DCE"/>
</linearGradient>
<linearGradient id="paint11_linear_129_360" x1="300.583" y1="178.844" x2="300.583" y2="65.7756" gradientUnits="userSpaceOnUse">
<stop stop-color="#670DCE"/>
<stop offset="0.29" stop-color="#B67EF6"/>
<stop offset="0.575" stop-color="#670DCE"/>
<stop offset="0.825" stop-color="#B67EF6"/>
<stop offset="1" stop-color="#670DCE"/>
</linearGradient>
<linearGradient id="paint12_linear_129_360" x1="300.587" y1="172.226" x2="300.587" y2="59.1582" gradientUnits="userSpaceOnUse">
<stop stop-color="#670DCE"/>
<stop offset="0.29" stop-color="#B67EF6"/>
<stop offset="0.575" stop-color="#670DCE"/>
<stop offset="0.825" stop-color="#B67EF6"/>
<stop offset="1" stop-color="#670DCE"/>
</linearGradient>
<linearGradient id="paint13_linear_129_360" x1="300.587" y1="165.758" x2="300.587" y2="52.6904" gradientUnits="userSpaceOnUse">
<stop stop-color="#670DCE"/>
<stop offset="0.29" stop-color="#B67EF6"/>
<stop offset="0.575" stop-color="#670DCE"/>
<stop offset="0.825" stop-color="#B67EF6"/>
<stop offset="1" stop-color="#670DCE"/>
</linearGradient>
<linearGradient id="paint14_linear_129_360" x1="300.587" y1="159.433" x2="300.587" y2="46.3651" gradientUnits="userSpaceOnUse">
<stop stop-color="#670DCE"/>
<stop offset="0.29" stop-color="#B67EF6"/>
<stop offset="0.575" stop-color="#670DCE"/>
<stop offset="0.825" stop-color="#B67EF6"/>
<stop offset="1" stop-color="#670DCE"/>
</linearGradient>
<linearGradient id="paint15_linear_129_360" x1="300.583" y1="153.257" x2="300.583" y2="40.1886" gradientUnits="userSpaceOnUse">
<stop stop-color="#670DCE"/>
<stop offset="0.29" stop-color="#B67EF6"/>
<stop offset="0.575" stop-color="#670DCE"/>
<stop offset="0.825" stop-color="#B67EF6"/>
<stop offset="1" stop-color="#670DCE"/>
</linearGradient>
<linearGradient id="paint16_linear_129_360" x1="300.583" y1="147.22" x2="300.583" y2="34.1522" gradientUnits="userSpaceOnUse">
<stop stop-color="#670DCE"/>
<stop offset="0.29" stop-color="#B67EF6"/>
<stop offset="0.575" stop-color="#670DCE"/>
<stop offset="0.825" stop-color="#B67EF6"/>
<stop offset="1" stop-color="#670DCE"/>
</linearGradient>
<linearGradient id="paint17_linear_129_360" x1="300.587" y1="141.33" x2="300.587" y2="28.262" gradientUnits="userSpaceOnUse">
<stop stop-color="#670DCE"/>
<stop offset="0.29" stop-color="#B67EF6"/>
<stop offset="0.575" stop-color="#670DCE"/>
<stop offset="0.825" stop-color="#B67EF6"/>
<stop offset="1" stop-color="#670DCE"/>
</linearGradient>
<linearGradient id="paint18_linear_129_360" x1="300.583" y1="135.587" x2="300.583" y2="22.5191" gradientUnits="userSpaceOnUse">
<stop stop-color="#670DCE"/>
<stop offset="0.29" stop-color="#B67EF6"/>
<stop offset="0.575" stop-color="#670DCE"/>
<stop offset="0.825" stop-color="#B67EF6"/>
<stop offset="1" stop-color="#670DCE"/>
</linearGradient>
<linearGradient id="paint19_linear_129_360" x1="300.587" y1="129.99" x2="300.587" y2="16.9216" gradientUnits="userSpaceOnUse">
<stop stop-color="#670DCE"/>
<stop offset="0.29" stop-color="#B67EF6"/>
<stop offset="0.575" stop-color="#670DCE"/>
<stop offset="0.825" stop-color="#B67EF6"/>
<stop offset="1" stop-color="#670DCE"/>
</linearGradient>
<linearGradient id="paint20_linear_129_360" x1="300.583" y1="124.537" x2="300.583" y2="11.4687" gradientUnits="userSpaceOnUse">
<stop stop-color="#670DCE"/>
<stop offset="0.29" stop-color="#B67EF6"/>
<stop offset="0.575" stop-color="#670DCE"/>
<stop offset="0.825" stop-color="#B67EF6"/>
<stop offset="1" stop-color="#670DCE"/>
</linearGradient>
<linearGradient id="paint21_linear_129_360" x1="300.583" y1="119.231" x2="300.583" y2="6.16338" gradientUnits="userSpaceOnUse">
<stop stop-color="#670DCE"/>
<stop offset="0.29" stop-color="#B67EF6"/>
<stop offset="0.575" stop-color="#670DCE"/>
<stop offset="0.825" stop-color="#B67EF6"/>
<stop offset="1" stop-color="#670DCE"/>
</linearGradient>
</defs>
</svg>
